<svg class="icon" width="200" height="199.61" viewBox="0 0 1026 1024" xmlns="http://www.w3.org/2000/svg"><path d="M1026.4 208c0-44.096-35.872-80-80-80h-864a80.096 80.096 0 0 0-80 80v551.68c-3.2 5.12-3.2 11.424 0 16.576V873.6c0 44.128 35.904 80 80 80h675.488a16 16 0 0 0 0-32H82.4c-26.464 0-48-21.536-48-48V772.32l164.928-156.992c20.896-19.904 57.632-21.44 80.096-3.296l116.672 94.112c35.104 28.224 89.632 25.472 121.568-6.176L680.448 538.72c21.76-21.536 63.712-29.344 91.808-16.992l229.024 100.864a16.064 16.064 0 0 0 21.088-8.224c.096-.224.064-.48.16-.704a15.616 15.616 0 0 0 3.84-10.08V208zM657.952 516L495.168 677.248c-20.416 20.224-56.544 22.08-78.976 4l-116.672-94.08c-34.912-28.16-89.792-25.888-122.272 5.024L34.4 728.16V208c0-26.464 21.536-48 48-48h864c26.464 0 48 21.536 48 48v376.64l-209.248-92.16c-40.16-17.696-96.032-7.328-127.2 23.52z"/><path d="M978.4 800h-64v-64a32 32 0 1 0-64 0v64h-64a32 32 0 1 0 0 64h64v64a32 32 0 1 0 64 0v-64h64a32 32 0 1 0 0-64zm-720-544c-61.76 0-112 50.24-112 112s50.24 112 112 112 112-50.24 112-112-50.272-112-112-112zm0 192c-44.096 0-80-35.904-80-80s35.872-80 80-80 80 35.904 80 80-35.904 80-80 80z"/></svg>