<?xml version="1.0" standalone="no"?><!DOCTYPE svg PUBLIC "-//W3C//DTD SVG 1.1//EN" "http://www.w3.org/Graphics/SVG/1.1/DTD/svg11.dtd"><svg class="icon" width="200px" height="199.61px" viewBox="0 0 1026 1024" version="1.1" xmlns="http://www.w3.org/2000/svg"><path d="M1026.4 208c0-44.096-35.872-80-80-80h-864a80.096 80.096 0 0 0-80 80v551.68c-3.2 5.12-3.2 11.424 0 16.576V873.6c0 44.128 35.904 80 80 80h675.488a16 16 0 0 0 0-32H82.4c-26.464 0-48-21.536-48-48v-101.28l164.928-156.992c20.896-19.904 57.632-21.44 80.096-3.296l116.672 94.112c35.104 28.224 89.632 25.472 121.568-6.176l162.784-161.248c21.76-21.536 63.712-29.344 91.808-16.992l229.024 100.864a16.064 16.064 0 0 0 21.088-8.224c0.096-0.224 0.064-0.48 0.16-0.704a15.616 15.616 0 0 0 3.84-10.08V208z m-368.448 308l-162.784 161.248c-20.416 20.224-56.544 22.08-78.976 4l-116.672-94.08c-34.912-28.16-89.792-25.888-122.272 5.024l-142.848 135.968V208c0-26.464 21.536-48 48-48h864c26.464 0 48 21.536 48 48v376.64l-209.248-92.16c-40.16-17.696-96.032-7.328-127.2 23.52z"  /><path d="M978.4 800h-64v-64a32 32 0 1 0-64 0v64h-64a32 32 0 1 0 0 64h64v64a32 32 0 1 0 64 0v-64h64a32 32 0 1 0 0-64zM258.4 256c-61.76 0-112 50.24-112 112s50.24 112 112 112 112-50.24 112-112S320.128 256 258.4 256z m0 192c-44.096 0-80-35.904-80-80S214.272 288 258.4 288s80 35.904 80 80-35.904 80-80 80z"  /></svg>